<?xml version="1.0" encoding="UTF-8" standalone="no"?>
<svg
   sodipodi:docname="Urgent-Vertical.svg"
   inkscape:version="1.3.2 (091e20ef0f, 2023-11-25)"
   id="svg8"
   version="1.1"
   viewBox="0 0 7.0710678 105"
   height="105mm"
   width="7.0710678mm"
   xmlns:inkscape="http://www.inkscape.org/namespaces/inkscape"
   xmlns:sodipodi="http://sodipodi.sourceforge.net/DTD/sodipodi-0.dtd"
   xmlns="http://www.w3.org/2000/svg"
   xmlns:svg="http://www.w3.org/2000/svg"
   xmlns:rdf="http://www.w3.org/1999/02/22-rdf-syntax-ns#"
   xmlns:cc="http://creativecommons.org/ns#"
   xmlns:dc="http://purl.org/dc/elements/1.1/">
  <defs
     id="defs2">
    <rect
       id="rect3066"
       height="42.793926"
       width="158.85805"
       y="-6.3219504"
       x="-25.507965" />
    <rect
       id="rect2857"
       height="77.90123"
       width="131.7955"
       y="19.02866"
       x="8.3055305" />
    <clipPath
       id="clipPath1959"
       clipPathUnits="userSpaceOnUse">
      <rect
         y="-4.0608697"
         x="144.825"
         height="105"
         width="7.0710678"
         id="rect1961"
         style="fill:#0001d4;fill-opacity:0.456089;stroke-width:0.894374" />
    </clipPath>
  </defs>
  <sodipodi:namedview
     inkscape:snap-bbox-midpoints="false"
     showguides="true"
     inkscape:snap-midpoints="true"
     inkscape:snap-intersection-paths="true"
     inkscape:bbox-paths="true"
     inkscape:snap-bbox-edge-midpoints="true"
     inkscape:window-maximized="1"
     inkscape:window-y="0"
     inkscape:window-x="0"
     inkscape:window-height="1131"
     inkscape:window-width="1920"
     inkscape:snap-page="true"
     inkscape:bbox-nodes="true"
     inkscape:snap-bbox="true"
     showgrid="false"
     inkscape:document-rotation="0"
     inkscape:current-layer="layer2"
     inkscape:document-units="mm"
     inkscape:cy="198.66806"
     inkscape:cx="-252.58531"
     inkscape:zoom="1.0293552"
     inkscape:pageshadow="2"
     inkscape:pageopacity="0.0"
     borderopacity="1.0"
     bordercolor="#666666"
     pagecolor="#ffffff"
     id="base"
     inkscape:showpageshadow="2"
     inkscape:pagecheckerboard="0"
     inkscape:deskcolor="#d1d1d1" />
  <metadata
     id="metadata5">
    <rdf:RDF>
      <cc:Work
         rdf:about="">
        <dc:format>image/svg+xml</dc:format>
        <dc:type
           rdf:resource="http://purl.org/dc/dcmitype/StillImage" />
      </cc:Work>
    </rdf:RDF>
  </metadata>
  <g
     style="display:inline"
     inkscape:label="Background"
     id="layer2"
     inkscape:groupmode="layer"
     transform="translate(-140.92892)">
    <g
       clip-path="url(#clipPath1959)"
       transform="translate(-3.8960728,4.0608696)"
       style="display:inline"
       id="g1876">
      <rect
         style="fill:#0001d4;fill-opacity:0.456089;stroke-width:0.590048"
         id="rect2853"
         width="7.0710678"
         height="105"
         x="140.92892"
         y="0" />
      <rect
         y="-114.65179"
         x="84.651794"
         height="5"
         width="30"
         id="rect1716"
         style="fill:#000000;fill-opacity:1;stroke-width:0.378568"
         transform="matrix(0.70710678,-0.70710678,-0.70710678,-0.70710678,0,0)" />
      <rect
         style="fill:#fcfc00;fill-opacity:1;stroke-width:0.378568"
         id="rect1718"
         width="30"
         height="5"
         x="75.214577"
         y="-119.65179"
         transform="matrix(0.70710678,-0.70710678,-0.70710678,-0.70710678,0,0)" />
      <rect
         transform="matrix(0.70710678,-0.70710678,-0.70710678,-0.70710678,0,0)"
         style="fill:#000000;fill-opacity:1;stroke-width:0.378568"
         id="rect1722"
         width="30"
         height="5"
         x="74.651802"
         y="-124.65179" />
      <rect
         transform="matrix(0.70710678,-0.70710678,-0.70710678,-0.70710678,0,0)"
         y="-129.65179"
         x="65.214577"
         height="5"
         width="30"
         id="rect1724"
         style="fill:#fcfc00;fill-opacity:1;stroke-width:0.378568" />
      <rect
         y="-134.65179"
         x="64.651802"
         height="5"
         width="30"
         id="rect1728"
         style="fill:#000000;fill-opacity:1;stroke-width:0.378568"
         transform="matrix(0.70710678,-0.70710678,-0.70710678,-0.70710678,0,0)" />
      <rect
         style="fill:#fcfc00;fill-opacity:1;stroke-width:0.378568"
         id="rect1730"
         width="30"
         height="5"
         x="55.214577"
         y="-139.65179"
         transform="matrix(0.70710678,-0.70710678,-0.70710678,-0.70710678,0,0)" />
      <rect
         transform="matrix(0.70710678,-0.70710678,-0.70710678,-0.70710678,0,0)"
         style="fill:#000000;fill-opacity:1;stroke-width:0.378568"
         id="rect1734"
         width="30"
         height="5"
         x="54.65181"
         y="-144.65179" />
      <rect
         transform="matrix(0.70710678,-0.70710678,-0.70710678,-0.70710678,0,0)"
         y="-149.65179"
         x="45.214588"
         height="5"
         width="30"
         id="rect1736"
         style="fill:#fcfc00;fill-opacity:1;stroke-width:0.378568" />
      <rect
         y="-144.65179"
         x="54.65181"
         height="5"
         width="30"
         id="rect1740"
         style="fill:#000000;fill-opacity:1;stroke-width:0.378568"
         transform="matrix(0.70710678,-0.70710678,-0.70710678,-0.70710678,0,0)" />
      <rect
         style="fill:#fcfc00;fill-opacity:1;stroke-width:0.378568"
         id="rect1742"
         width="30"
         height="5"
         x="45.214588"
         y="-149.65179"
         transform="matrix(0.70710678,-0.70710678,-0.70710678,-0.70710678,0,0)" />
      <rect
         transform="matrix(0.70710678,-0.70710678,-0.70710678,-0.70710678,0,0)"
         style="fill:#000000;fill-opacity:1;stroke-width:0.378568"
         id="rect1746"
         width="30"
         height="5"
         x="94.089027"
         y="-104.6518" />
      <rect
         transform="matrix(0.70710678,-0.70710678,-0.70710678,-0.70710678,0,0)"
         y="-109.6518"
         x="84.65181"
         height="5"
         width="30"
         id="rect1748"
         style="fill:#fcfc00;fill-opacity:1;stroke-width:0.378568" />
      <rect
         transform="matrix(0.70710678,-0.70710678,-0.70710678,-0.70710678,0,0)"
         style="fill:#000000;fill-opacity:1;stroke-width:0.378568"
         id="rect1752"
         width="30"
         height="5"
         x="54.65181"
         y="-144.65179" />
      <rect
         transform="matrix(0.70710678,-0.70710678,-0.70710678,-0.70710678,0,0)"
         y="-149.65179"
         x="45.214588"
         height="5"
         width="30"
         id="rect1754"
         style="fill:#fcfc00;fill-opacity:1;stroke-width:0.378568" />
      <rect
         transform="matrix(0.70710678,-0.70710678,-0.70710678,-0.70710678,0,0)"
         style="fill:#000000;fill-opacity:1;stroke-width:0.378568"
         id="rect1758"
         width="30"
         height="5"
         x="35.214569"
         y="-164.65179" />
      <rect
         transform="matrix(0.70710678,-0.70710678,-0.70710678,-0.70710678,0,0)"
         y="-169.65179"
         x="25.777346"
         height="5"
         width="30"
         id="rect1760"
         style="fill:#fcfc00;fill-opacity:1;stroke-width:0.378568" />
      <rect
         y="-174.65179"
         x="25.214567"
         height="5"
         width="30"
         id="rect1764"
         style="fill:#000000;fill-opacity:1;stroke-width:0.378568"
         transform="matrix(0.70710678,-0.70710678,-0.70710678,-0.70710678,0,0)" />
      <rect
         style="fill:#fcfc00;fill-opacity:1;stroke-width:0.378568"
         id="rect1766"
         width="30"
         height="5"
         x="15.777347"
         y="-179.65179"
         transform="matrix(0.70710678,-0.70710678,-0.70710678,-0.70710678,0,0)" />
      <rect
         transform="matrix(0.70710678,-0.70710678,-0.70710678,-0.70710678,0,0)"
         style="fill:#000000;fill-opacity:1;stroke-width:0.378568"
         id="rect1770"
         width="30"
         height="5"
         x="15.214568"
         y="-184.65179" />
      <rect
         y="-154.65179"
         x="44.651798"
         height="5"
         width="30"
         id="rect1788"
         style="fill:#000000;fill-opacity:1;stroke-width:0.378568"
         transform="matrix(0.70710678,-0.70710678,-0.70710678,-0.70710678,0,0)" />
      <rect
         style="fill:#fcfc00;fill-opacity:1;stroke-width:0.378568"
         id="rect1790"
         width="30"
         height="5"
         x="35.214577"
         y="-159.65179"
         transform="matrix(0.70710678,-0.70710678,-0.70710678,-0.70710678,0,0)" />
    </g>
  </g>
</svg>
